<svg width="33" height="34" viewBox="0 0 33 34" fill="none" xmlns="http://www.w3.org/2000/svg">
<path d="M16.5 0.75C13.2861 0.75 10.1443 1.70305 7.47199 3.48862C4.79969 5.27419 2.71689 7.81209 1.48696 10.7814C0.257041 13.7507 -0.0647633 17.018 0.562247 20.1702C1.18926 23.3224 2.73692 26.2179 5.00952 28.4905C7.28213 30.7631 10.1776 32.3107 13.3298 32.9378C16.482 33.5648 19.7493 33.243 22.7186 32.013C25.6879 30.7831 28.2258 28.7003 30.0114 26.028C31.797 23.3557 32.75 20.2139 32.75 17C32.7455 12.6916 31.0319 8.56102 27.9855 5.51454C24.939 2.46806 20.8084 0.75455 16.5 0.75ZM23.6344 14.1344L14.8844 22.8844C14.7683 23.0006 14.6304 23.0928 14.4787 23.1557C14.3269 23.2186 14.1643 23.251 14 23.251C13.8357 23.251 13.6731 23.2186 13.5213 23.1557C13.3696 23.0928 13.2317 23.0006 13.1156 22.8844L9.36563 19.1344C9.13108 18.8998 8.99931 18.5817 8.99931 18.25C8.99931 17.9183 9.13108 17.6002 9.36563 17.3656C9.60018 17.1311 9.9183 16.9993 10.25 16.9993C10.5817 16.9993 10.8998 17.1311 11.1344 17.3656L14 20.2328L21.8656 12.3656C21.9818 12.2495 22.1196 12.1574 22.2714 12.0945C22.4231 12.0317 22.5858 11.9993 22.75 11.9993C22.9143 11.9993 23.0769 12.0317 23.2286 12.0945C23.3804 12.1574 23.5182 12.2495 23.6344 12.3656C23.7505 12.4818 23.8426 12.6196 23.9055 12.7714C23.9684 12.9231 24.0007 13.0858 24.0007 13.25C24.0007 13.4142 23.9684 13.5769 23.9055 13.7286C23.8426 13.8804 23.7505 14.0182 23.6344 14.1344Z" fill="#48FF00"/>
</svg>
